<svg width="120" height="24" viewBox="0 0 120 24" fill="none" xmlns="http://www.w3.org/2000/svg">
<g clip-path="url(#clip0_9231_210709)">
<path d="M0 4C0 1.79086 1.79086 0 4 0H116C118.209 0 120 1.79086 120 4V20C120 22.2091 118.209 24 116 24H4C1.79086 24 0 22.2091 0 20V4Z" fill="#5DA1F6"/>
<path d="M40.204 17V7.228H46.308V8.628H41.786V11.344H45.804V12.744H41.786V17H40.204ZM50.5359 17.168C50.0319 17.168 49.5699 17.0793 49.1499 16.902C48.7392 16.7247 48.3892 16.4727 48.0999 16.146C47.8106 15.81 47.5866 15.4087 47.4279 14.942C47.2692 14.466 47.1899 13.9387 47.1899 13.36C47.1899 12.7813 47.2692 12.2587 47.4279 11.792C47.5866 11.316 47.8106 10.9147 48.0999 10.588C48.3892 10.252 48.7392 9.99533 49.1499 9.818C49.5699 9.64067 50.0319 9.552 50.5359 9.552C51.0399 9.552 51.4972 9.64067 51.9079 9.818C52.3279 9.99533 52.6826 10.252 52.9719 10.588C53.2612 10.9147 53.4852 11.316 53.6439 11.792C53.8026 12.2587 53.8819 12.7813 53.8819 13.36C53.8819 13.9387 53.8026 14.466 53.6439 14.942C53.4852 15.4087 53.2612 15.81 52.9719 16.146C52.6826 16.4727 52.3279 16.7247 51.9079 16.902C51.4972 17.0793 51.0399 17.168 50.5359 17.168ZM50.5359 15.908C51.0586 15.908 51.4786 15.7493 51.7959 15.432C52.1132 15.1053 52.2719 14.62 52.2719 13.976V12.744C52.2719 12.1 52.1132 11.6193 51.7959 11.302C51.4786 10.9753 51.0586 10.812 50.5359 10.812C50.0132 10.812 49.5932 10.9753 49.2759 11.302C48.9586 11.6193 48.7999 12.1 48.7999 12.744V13.976C48.7999 14.62 48.9586 15.1053 49.2759 15.432C49.5932 15.7493 50.0132 15.908 50.5359 15.908ZM55.5822 17V9.72H57.1082V11.12H57.1782C57.2809 10.7467 57.4956 10.42 57.8222 10.14C58.1489 9.86 58.6016 9.72 59.1802 9.72H59.5862V11.19H58.9842C58.3776 11.19 57.9109 11.288 57.5842 11.484C57.2669 11.68 57.1082 11.9693 57.1082 12.352V17H55.5822ZM60.9416 6.64H62.4676V12.996H62.5376L63.5456 11.694L65.2956 9.72H67.0736L64.5256 12.534L67.3816 17H65.5616L63.4756 13.528L62.4676 14.62V17H60.9416V6.64ZM73.6005 17H72.0185V7.228H76.2325C77.1098 7.228 77.8005 7.494 78.3045 8.026C78.8085 8.54867 79.0605 9.26267 79.0605 10.168C79.0605 10.868 78.8971 11.4513 78.5705 11.918C78.2531 12.3753 77.7818 12.6973 77.1565 12.884L79.2705 17H77.5065L75.5465 13.052H73.6005V17ZM76.1205 11.722C76.5218 11.722 76.8345 11.6193 77.0585 11.414C77.2825 11.1993 77.3945 10.896 77.3945 10.504V9.832C77.3945 9.44 77.2825 9.14133 77.0585 8.936C76.8345 8.72133 76.5218 8.614 76.1205 8.614H73.6005V11.722H76.1205ZM83.7312 17.168C83.2085 17.168 82.7419 17.0793 82.3312 16.902C81.9205 16.7247 81.5705 16.4727 81.2812 16.146C80.9919 15.81 80.7679 15.4087 80.6092 14.942C80.4599 14.466 80.3852 13.9387 80.3852 13.36C80.3852 12.7813 80.4599 12.2587 80.6092 11.792C80.7679 11.316 80.9919 10.9147 81.2812 10.588C81.5705 10.252 81.9205 9.99533 82.3312 9.818C82.7419 9.64067 83.2085 9.552 83.7312 9.552C84.2632 9.552 84.7299 9.64533 85.1312 9.832C85.5419 10.0187 85.8825 10.28 86.1532 10.616C86.4239 10.9427 86.6245 11.3253 86.7552 11.764C86.8952 12.2027 86.9652 12.674 86.9652 13.178V13.752H81.9672V13.99C81.9672 14.55 82.1305 15.012 82.4572 15.376C82.7932 15.7307 83.2692 15.908 83.8852 15.908C84.3332 15.908 84.7112 15.81 85.0192 15.614C85.3272 15.418 85.5885 15.152 85.8032 14.816L86.6992 15.698C86.4285 16.146 86.0365 16.5053 85.5232 16.776C85.0099 17.0373 84.4125 17.168 83.7312 17.168ZM83.7312 10.742C83.4699 10.742 83.2272 10.7887 83.0032 10.882C82.7885 10.9753 82.6019 11.106 82.4432 11.274C82.2939 11.442 82.1772 11.6427 82.0932 11.876C82.0092 12.1093 81.9672 12.366 81.9672 12.646V12.744H85.3552V12.604C85.3552 12.044 85.2105 11.596 84.9212 11.26C84.6319 10.9147 84.2352 10.742 83.7312 10.742ZM88.6545 9.72H90.1805V10.924H90.2505C90.4092 10.4853 90.6658 10.1493 91.0205 9.916C91.3845 9.67333 91.8092 9.552 92.2945 9.552C93.2185 9.552 93.9325 9.888 94.4365 10.56C94.9405 11.2227 95.1925 12.156 95.1925 13.36C95.1925 14.564 94.9405 15.502 94.4365 16.174C93.9325 16.8367 93.2185 17.168 92.2945 17.168C91.8092 17.168 91.3845 17.0467 91.0205 16.804C90.6658 16.5613 90.4092 16.2253 90.2505 15.796H90.1805V19.8H88.6545V9.72ZM91.8325 15.852C92.3645 15.852 92.7892 15.684 93.1065 15.348C93.4238 15.0027 93.5825 14.55 93.5825 13.99V12.73C93.5825 12.17 93.4238 11.722 93.1065 11.386C92.7892 11.0407 92.3645 10.868 91.8325 10.868C91.3658 10.868 90.9738 10.9847 90.6565 11.218C90.3392 11.442 90.1805 11.7407 90.1805 12.114V14.606C90.1805 14.9793 90.3392 15.2827 90.6565 15.516C90.9738 15.74 91.3658 15.852 91.8325 15.852ZM98.4937 17C97.971 17 97.579 16.8693 97.3177 16.608C97.0657 16.3373 96.9397 15.964 96.9397 15.488V6.64H98.4657V15.754H99.4737V17H98.4937Z" fill="black"/>
<line x1="19" y1="12.1792" x2="23.7367" y2="12.1792" stroke="black"/>
<rect x="24.2178" y="8.16968" width="7.22529" height="7.90558" rx="1.22727" stroke="black"/>
<rect x="28.4189" y="7.66968" width="3.52513" height="8.90558" rx="1.72727" fill="#5DA1F6"/>
<rect x="28.418" y="6" width="4.30849" height="4.08173" rx="2.04086" fill="#5DA1F6" stroke="black"/>
<rect x="28.418" y="13.7921" width="4.30849" height="4.08173" rx="2.04086" fill="#5DA1F6" stroke="black"/>
</g>
<defs>
<clipPath id="clip0_9231_210709">
<rect width="120" height="24" fill="white"/>
</clipPath>
</defs>
</svg>
