<svg width="115" height="24" viewBox="0 0 115 24" fill="none" xmlns="http://www.w3.org/2000/svg">
<path d="M4 0.5H111C112.933 0.5 114.5 2.067 114.5 4V20C114.5 21.933 112.933 23.5 111 23.5H4C2.067 23.5 0.5 21.933 0.5 20V4C0.5 2.067 2.067 0.5 4 0.5Z" fill="#0F1524" stroke="#4F5567"/>
<path d="M16.0263 17.168C15.3916 17.168 14.8176 17.0607 14.3043 16.846C13.8003 16.622 13.3663 16.3 13.0023 15.88C12.6476 15.4507 12.3723 14.9233 12.1763 14.298C11.9803 13.6633 11.8823 12.9353 11.8823 12.114C11.8823 11.2927 11.9803 10.5693 12.1763 9.944C12.3723 9.31867 12.6476 8.79133 13.0023 8.362C13.3663 7.93267 13.8003 7.61067 14.3043 7.396C14.8176 7.172 15.3916 7.06 16.0263 7.06C16.6516 7.06 17.221 7.172 17.7343 7.396C18.2476 7.61067 18.6816 7.93267 19.0363 8.362C19.4003 8.79133 19.6803 9.31867 19.8763 9.944C20.0723 10.5693 20.1703 11.2927 20.1703 12.114C20.1703 12.9353 20.0723 13.6633 19.8763 14.298C19.6803 14.9233 19.4003 15.4507 19.0363 15.88C18.6816 16.3 18.2476 16.622 17.7343 16.846C17.221 17.0607 16.6516 17.168 16.0263 17.168ZM16.0263 16.118C16.4463 16.118 16.8336 16.0433 17.1883 15.894C17.543 15.7447 17.8463 15.53 18.0983 15.25C18.3596 14.97 18.5603 14.634 18.7003 14.242C18.8403 13.85 18.9103 13.4113 18.9103 12.926V11.302C18.9103 10.8167 18.8403 10.378 18.7003 9.986C18.5603 9.594 18.3596 9.258 18.0983 8.978C17.8463 8.698 17.543 8.48333 17.1883 8.334C16.8336 8.18467 16.4463 8.11 16.0263 8.11C15.6063 8.11 15.219 8.18467 14.8643 8.334C14.5096 8.48333 14.2016 8.698 13.9403 8.978C13.6883 9.258 13.4923 9.594 13.3523 9.986C13.2123 10.378 13.1423 10.8167 13.1423 11.302V12.926C13.1423 13.4113 13.2123 13.85 13.3523 14.242C13.4923 14.634 13.6883 14.97 13.9403 15.25C14.2016 15.53 14.5096 15.7447 14.8643 15.894C15.219 16.0433 15.6063 16.118 16.0263 16.118ZM22.1724 9.776H23.2924V10.952H23.3484C23.5351 10.4947 23.8058 10.1587 24.1604 9.944C24.5244 9.72 24.9584 9.608 25.4624 9.608C25.9104 9.608 26.3164 9.69667 26.6804 9.874C27.0444 10.0513 27.3524 10.3033 27.6044 10.63C27.8658 10.9567 28.0618 11.3533 28.1924 11.82C28.3324 12.2867 28.4024 12.8093 28.4024 13.388C28.4024 13.9667 28.3324 14.4893 28.1924 14.956C28.0618 15.4227 27.8658 15.8193 27.6044 16.146C27.3524 16.4727 27.0444 16.7247 26.6804 16.902C26.3164 17.0793 25.9104 17.168 25.4624 17.168C24.4824 17.168 23.7778 16.72 23.3484 15.824H23.2924V19.8H22.1724V9.776ZM25.1544 16.16C25.7891 16.16 26.2884 15.964 26.6524 15.572C27.0164 15.1707 27.1984 14.648 27.1984 14.004V12.772C27.1984 12.128 27.0164 11.61 26.6524 11.218C26.2884 10.8167 25.7891 10.616 25.1544 10.616C24.9024 10.616 24.6598 10.6533 24.4264 10.728C24.2024 10.7933 24.0064 10.8867 23.8384 11.008C23.6704 11.1293 23.5351 11.2787 23.4324 11.456C23.3391 11.624 23.2924 11.806 23.2924 12.002V14.69C23.2924 14.9233 23.3391 15.1333 23.4324 15.32C23.5351 15.4973 23.6704 15.6513 23.8384 15.782C24.0064 15.9033 24.2024 15.9967 24.4264 16.062C24.6598 16.1273 24.9024 16.16 25.1544 16.16ZM33.0095 17.168C32.5148 17.168 32.0668 17.0793 31.6655 16.902C31.2735 16.7247 30.9328 16.4727 30.6435 16.146C30.3635 15.81 30.1442 15.4133 29.9855 14.956C29.8362 14.4893 29.7615 13.9667 29.7615 13.388C29.7615 12.8187 29.8362 12.3007 29.9855 11.834C30.1442 11.3673 30.3635 10.9707 30.6435 10.644C30.9328 10.308 31.2735 10.0513 31.6655 9.874C32.0668 9.69667 32.5148 9.608 33.0095 9.608C33.4948 9.608 33.9288 9.69667 34.3115 9.874C34.6942 10.0513 35.0208 10.2987 35.2915 10.616C35.5622 10.924 35.7675 11.2927 35.9075 11.722C36.0568 12.1513 36.1315 12.6227 36.1315 13.136V13.668H30.9375V14.004C30.9375 14.312 30.9842 14.6013 31.0775 14.872C31.1802 15.1333 31.3202 15.362 31.4975 15.558C31.6842 15.754 31.9082 15.908 32.1695 16.02C32.4402 16.132 32.7435 16.188 33.0795 16.188C33.5368 16.188 33.9335 16.0807 34.2695 15.866C34.6148 15.6513 34.8808 15.3433 35.0675 14.942L35.8655 15.516C35.6322 16.0107 35.2682 16.412 34.7735 16.72C34.2788 17.0187 33.6908 17.168 33.0095 17.168ZM33.0095 10.546C32.7015 10.546 32.4215 10.602 32.1695 10.714C31.9175 10.8167 31.6982 10.966 31.5115 11.162C31.3342 11.358 31.1942 11.5913 31.0915 11.862C30.9888 12.1233 30.9375 12.4127 30.9375 12.73V12.828H34.9275V12.674C34.9275 12.03 34.7502 11.5167 34.3955 11.134C34.0502 10.742 33.5882 10.546 33.0095 10.546ZM37.9771 17V9.776H39.0971V10.952H39.1531C39.3304 10.5413 39.5778 10.2147 39.8951 9.972C40.2218 9.72933 40.6558 9.608 41.1971 9.608C41.9438 9.608 42.5318 9.85067 42.9611 10.336C43.3998 10.812 43.6191 11.4887 43.6191 12.366V17H42.4991V12.562C42.4991 11.2647 41.9531 10.616 40.8611 10.616C40.6371 10.616 40.4178 10.644 40.2031 10.7C39.9978 10.756 39.8111 10.84 39.6431 10.952C39.4751 11.064 39.3398 11.2087 39.2371 11.386C39.1438 11.554 39.0971 11.7547 39.0971 11.988V17H37.9771ZM51.9727 17.168C51.4874 17.168 51.0441 17.0793 50.6427 16.902C50.2414 16.7247 49.8961 16.4727 49.6067 16.146C49.3267 15.81 49.1074 15.4133 48.9487 14.956C48.7901 14.4893 48.7107 13.9667 48.7107 13.388C48.7107 12.8187 48.7901 12.3007 48.9487 11.834C49.1074 11.3673 49.3267 10.9707 49.6067 10.644C49.8961 10.308 50.2414 10.0513 50.6427 9.874C51.0441 9.69667 51.4874 9.608 51.9727 9.608C52.4581 9.608 52.8967 9.69667 53.2887 9.874C53.6901 10.0513 54.0354 10.308 54.3247 10.644C54.6141 10.9707 54.8381 11.3673 54.9967 11.834C55.1554 12.3007 55.2347 12.8187 55.2347 13.388C55.2347 13.9667 55.1554 14.4893 54.9967 14.956C54.8381 15.4133 54.6141 15.81 54.3247 16.146C54.0354 16.4727 53.6901 16.7247 53.2887 16.902C52.8967 17.0793 52.4581 17.168 51.9727 17.168ZM51.9727 16.174C52.5794 16.174 53.0741 15.9873 53.4567 15.614C53.8394 15.2407 54.0307 14.6713 54.0307 13.906V12.87C54.0307 12.1047 53.8394 11.5353 53.4567 11.162C53.0741 10.7887 52.5794 10.602 51.9727 10.602C51.3661 10.602 50.8714 10.7887 50.4887 11.162C50.1061 11.5353 49.9147 12.1047 49.9147 12.87V13.906C49.9147 14.6713 50.1061 15.2407 50.4887 15.614C50.8714 15.9873 51.3661 16.174 51.9727 16.174ZM57.0767 17V9.776H58.1967V10.952H58.2527C58.4301 10.5413 58.6774 10.2147 58.9947 9.972C59.3214 9.72933 59.7554 9.608 60.2967 9.608C61.0434 9.608 61.6314 9.85067 62.0607 10.336C62.4994 10.812 62.7187 11.4887 62.7187 12.366V17H61.5987V12.562C61.5987 11.2647 61.0527 10.616 59.9607 10.616C59.7367 10.616 59.5174 10.644 59.3027 10.7C59.0974 10.756 58.9107 10.84 58.7427 10.952C58.5747 11.064 58.4394 11.2087 58.3367 11.386C58.2434 11.554 58.1967 11.7547 58.1967 11.988V17H57.0767ZM69.6303 17H68.4543V7.228H72.3463C73.205 7.228 73.8723 7.466 74.3483 7.942C74.8337 8.418 75.0763 9.104 75.0763 10C75.0763 10.7187 74.9083 11.3113 74.5723 11.778C74.2457 12.2353 73.7603 12.5387 73.1163 12.688L75.3563 17H74.0263L71.9123 12.8H69.6303V17ZM72.3463 11.792C72.813 11.792 73.1723 11.6707 73.4243 11.428C73.6857 11.1853 73.8163 10.84 73.8163 10.392V9.664C73.8163 9.216 73.6857 8.87067 73.4243 8.628C73.1723 8.38533 72.813 8.264 72.3463 8.264H69.6303V11.792H72.3463ZM79.8083 17.168C79.3137 17.168 78.8657 17.0793 78.4643 16.902C78.0723 16.7247 77.7317 16.4727 77.4423 16.146C77.1623 15.81 76.943 15.4133 76.7843 14.956C76.635 14.4893 76.5603 13.9667 76.5603 13.388C76.5603 12.8187 76.635 12.3007 76.7843 11.834C76.943 11.3673 77.1623 10.9707 77.4423 10.644C77.7317 10.308 78.0723 10.0513 78.4643 9.874C78.8657 9.69667 79.3137 9.608 79.8083 9.608C80.2937 9.608 80.7277 9.69667 81.1103 9.874C81.493 10.0513 81.8197 10.2987 82.0903 10.616C82.361 10.924 82.5663 11.2927 82.7063 11.722C82.8557 12.1513 82.9303 12.6227 82.9303 13.136V13.668H77.7363V14.004C77.7363 14.312 77.783 14.6013 77.8763 14.872C77.979 15.1333 78.119 15.362 78.2963 15.558C78.483 15.754 78.707 15.908 78.9683 16.02C79.239 16.132 79.5423 16.188 79.8783 16.188C80.3357 16.188 80.7323 16.0807 81.0683 15.866C81.4137 15.6513 81.6797 15.3433 81.8663 14.942L82.6643 15.516C82.431 16.0107 82.067 16.412 81.5723 16.72C81.0777 17.0187 80.4897 17.168 79.8083 17.168ZM79.8083 10.546C79.5003 10.546 79.2203 10.602 78.9683 10.714C78.7163 10.8167 78.497 10.966 78.3103 11.162C78.133 11.358 77.993 11.5913 77.8903 11.862C77.7877 12.1233 77.7363 12.4127 77.7363 12.73V12.828H81.7263V12.674C81.7263 12.03 81.549 11.5167 81.1943 11.134C80.849 10.742 80.387 10.546 79.8083 10.546ZM84.7759 9.776H85.8959V10.952H85.9519C86.1386 10.4947 86.4093 10.1587 86.7639 9.944C87.1279 9.72 87.5619 9.608 88.0659 9.608C88.5139 9.608 88.9199 9.69667 89.2839 9.874C89.6479 10.0513 89.9559 10.3033 90.2079 10.63C90.4693 10.9567 90.6653 11.3533 90.7959 11.82C90.9359 12.2867 91.0059 12.8093 91.0059 13.388C91.0059 13.9667 90.9359 14.4893 90.7959 14.956C90.6653 15.4227 90.4693 15.8193 90.2079 16.146C89.9559 16.4727 89.6479 16.7247 89.2839 16.902C88.9199 17.0793 88.5139 17.168 88.0659 17.168C87.0859 17.168 86.3813 16.72 85.9519 15.824H85.8959V19.8H84.7759V9.776ZM87.7579 16.16C88.3926 16.16 88.8919 15.964 89.2559 15.572C89.6199 15.1707 89.8019 14.648 89.8019 14.004V12.772C89.8019 12.128 89.6199 11.61 89.2559 11.218C88.8919 10.8167 88.3926 10.616 87.7579 10.616C87.5059 10.616 87.2633 10.6533 87.0299 10.728C86.8059 10.7933 86.6099 10.8867 86.4419 11.008C86.2739 11.1293 86.1386 11.2787 86.0359 11.456C85.9426 11.624 85.8959 11.806 85.8959 12.002V14.69C85.8959 14.9233 85.9426 15.1333 86.0359 15.32C86.1386 15.4973 86.2739 15.6513 86.4419 15.782C86.6099 15.9033 86.8059 15.9967 87.0299 16.062C87.2633 16.1273 87.5059 16.16 87.7579 16.16ZM94.087 17C93.695 17 93.3964 16.8927 93.191 16.678C92.995 16.454 92.897 16.174 92.897 15.838V6.64H94.017V16.02H95.081V17H94.087ZM97.2715 8.082C97.0288 8.082 96.8515 8.026 96.7395 7.914C96.6368 7.79267 96.5855 7.63867 96.5855 7.452V7.27C96.5855 7.08333 96.6368 6.934 96.7395 6.822C96.8515 6.70067 97.0288 6.64 97.2715 6.64C97.5142 6.64 97.6868 6.70067 97.7895 6.822C97.9015 6.934 97.9575 7.08333 97.9575 7.27V7.452C97.9575 7.63867 97.9015 7.79267 97.7895 7.914C97.6868 8.026 97.5142 8.082 97.2715 8.082ZM96.7115 9.776H97.8315V17H96.7115V9.776ZM101.807 17C101.415 17 101.117 16.8927 100.911 16.678C100.715 16.454 100.617 16.1647 100.617 15.81V10.756H99.4275V9.776H100.099C100.342 9.776 100.505 9.72933 100.589 9.636C100.683 9.53333 100.729 9.36067 100.729 9.118V7.774H101.737V9.776H103.319V10.756H101.737V16.02H103.207V17H101.807Z" fill="white"/>
</svg>
