<svg width="120" height="24" viewBox="0 0 120 24" fill="none" xmlns="http://www.w3.org/2000/svg">
<path d="M0 4C0 1.79086 1.79086 0 4 0H116C118.209 0 120 1.79086 120 4V20C120 22.2091 118.209 24 116 24H4C1.79086 24 0 22.2091 0 20V4Z" fill="#5DA1F6"/>
<path d="M35.786 17H34.204V7.228H38.418C39.2953 7.228 39.986 7.494 40.49 8.026C40.994 8.54867 41.246 9.26267 41.246 10.168C41.246 10.868 41.0827 11.4513 40.756 11.918C40.4387 12.3753 39.9673 12.6973 39.342 12.884L41.456 17H39.692L37.732 13.052H35.786V17ZM38.306 11.722C38.7073 11.722 39.02 11.6193 39.244 11.414C39.468 11.1993 39.58 10.896 39.58 10.504V9.832C39.58 9.44 39.468 9.14133 39.244 8.936C39.02 8.72133 38.7073 8.614 38.306 8.614H35.786V11.722H38.306ZM45.9168 17.168C45.3941 17.168 44.9274 17.0793 44.5168 16.902C44.1061 16.7247 43.7561 16.4727 43.4668 16.146C43.1774 15.81 42.9534 15.4087 42.7948 14.942C42.6454 14.466 42.5708 13.9387 42.5708 13.36C42.5708 12.7813 42.6454 12.2587 42.7948 11.792C42.9534 11.316 43.1774 10.9147 43.4668 10.588C43.7561 10.252 44.1061 9.99533 44.5168 9.818C44.9274 9.64067 45.3941 9.552 45.9168 9.552C46.4488 9.552 46.9154 9.64533 47.3168 9.832C47.7274 10.0187 48.0681 10.28 48.3388 10.616C48.6094 10.9427 48.8101 11.3253 48.9408 11.764C49.0808 12.2027 49.1508 12.674 49.1508 13.178V13.752H44.1528V13.99C44.1528 14.55 44.3161 15.012 44.6428 15.376C44.9788 15.7307 45.4548 15.908 46.0708 15.908C46.5188 15.908 46.8968 15.81 47.2048 15.614C47.5128 15.418 47.7741 15.152 47.9888 14.816L48.8848 15.698C48.6141 16.146 48.2221 16.5053 47.7088 16.776C47.1954 17.0373 46.5981 17.168 45.9168 17.168ZM45.9168 10.742C45.6554 10.742 45.4128 10.7887 45.1888 10.882C44.9741 10.9753 44.7874 11.106 44.6288 11.274C44.4794 11.442 44.3628 11.6427 44.2788 11.876C44.1948 12.1093 44.1528 12.366 44.1528 12.646V12.744H47.5408V12.604C47.5408 12.044 47.3961 11.596 47.1068 11.26C46.8174 10.9147 46.4208 10.742 45.9168 10.742ZM50.84 17V9.72H52.366V10.924H52.436C52.5107 10.7373 52.5994 10.56 52.702 10.392C52.814 10.224 52.9447 10.0793 53.094 9.958C53.2527 9.82733 53.4347 9.72933 53.64 9.664C53.8547 9.58933 54.102 9.552 54.382 9.552C54.8767 9.552 55.3154 9.67333 55.698 9.916C56.0807 10.1587 56.3607 10.532 56.538 11.036H56.58C56.7107 10.6253 56.9627 10.2753 57.336 9.986C57.7094 9.69667 58.19 9.552 58.778 9.552C59.506 9.552 60.0707 9.79933 60.472 10.294C60.8734 10.7793 61.074 11.4747 61.074 12.38V17H59.548V12.562C59.548 12.002 59.4407 11.582 59.226 11.302C59.0114 11.0127 58.6707 10.868 58.204 10.868C58.008 10.868 57.8214 10.896 57.644 10.952C57.4667 10.9987 57.308 11.0733 57.168 11.176C57.0374 11.2787 56.93 11.4093 56.846 11.568C56.762 11.7267 56.72 11.9087 56.72 12.114V17H55.194V12.562C55.194 11.4327 54.7507 10.868 53.864 10.868C53.6774 10.868 53.4907 10.896 53.304 10.952C53.1267 10.9987 52.968 11.0733 52.828 11.176C52.688 11.2787 52.576 11.4093 52.492 11.568C52.408 11.7267 52.366 11.9087 52.366 12.114V17H50.84ZM63.9558 8.418C63.6384 8.418 63.4051 8.34333 63.2558 8.194C63.1158 8.04467 63.0458 7.85333 63.0458 7.62V7.382C63.0458 7.14867 63.1158 6.95733 63.2558 6.808C63.4051 6.65867 63.6384 6.584 63.9558 6.584C64.2731 6.584 64.5018 6.65867 64.6418 6.808C64.7818 6.95733 64.8518 7.14867 64.8518 7.382V7.62C64.8518 7.85333 64.7818 8.04467 64.6418 8.194C64.5018 8.34333 64.2731 8.418 63.9558 8.418ZM63.1858 9.72H64.7118V17H63.1858V9.72ZM66.0788 17L68.6408 13.318L66.1488 9.72H67.9128L69.5508 12.254H69.5928L71.2728 9.72H72.8968L70.4048 13.304L72.9388 17H71.1748L69.4948 14.354H69.4528L67.7028 17H66.0788ZM79.3173 17H77.7353V7.228H81.9493C82.8266 7.228 83.5173 7.494 84.0213 8.026C84.5253 8.54867 84.7773 9.26267 84.7773 10.168C84.7773 10.868 84.6139 11.4513 84.2873 11.918C83.9699 12.3753 83.4986 12.6973 82.8733 12.884L84.9873 17H83.2233L81.2633 13.052H79.3173V17ZM81.8373 11.722C82.2386 11.722 82.5513 11.6193 82.7753 11.414C82.9993 11.1993 83.1113 10.896 83.1113 10.504V9.832C83.1113 9.44 82.9993 9.14133 82.7753 8.936C82.5513 8.72133 82.2386 8.614 81.8373 8.614H79.3173V11.722H81.8373ZM89.448 17.168C88.9253 17.168 88.4587 17.0793 88.048 16.902C87.6373 16.7247 87.2873 16.4727 86.998 16.146C86.7087 15.81 86.4847 15.4087 86.326 14.942C86.1767 14.466 86.102 13.9387 86.102 13.36C86.102 12.7813 86.1767 12.2587 86.326 11.792C86.4847 11.316 86.7087 10.9147 86.998 10.588C87.2873 10.252 87.6373 9.99533 88.048 9.818C88.4587 9.64067 88.9253 9.552 89.448 9.552C89.98 9.552 90.4467 9.64533 90.848 9.832C91.2587 10.0187 91.5993 10.28 91.87 10.616C92.1407 10.9427 92.3413 11.3253 92.472 11.764C92.612 12.2027 92.682 12.674 92.682 13.178V13.752H87.684V13.99C87.684 14.55 87.8473 15.012 88.174 15.376C88.51 15.7307 88.986 15.908 89.602 15.908C90.05 15.908 90.428 15.81 90.736 15.614C91.044 15.418 91.3053 15.152 91.52 14.816L92.416 15.698C92.1453 16.146 91.7533 16.5053 91.24 16.776C90.7267 17.0373 90.1293 17.168 89.448 17.168ZM89.448 10.742C89.1867 10.742 88.944 10.7887 88.72 10.882C88.5053 10.9753 88.3187 11.106 88.16 11.274C88.0107 11.442 87.894 11.6427 87.81 11.876C87.726 12.1093 87.684 12.366 87.684 12.646V12.744H91.072V12.604C91.072 12.044 90.9273 11.596 90.638 11.26C90.3487 10.9147 89.952 10.742 89.448 10.742ZM94.3713 9.72H95.8973V10.924H95.9673C96.126 10.4853 96.3826 10.1493 96.7373 9.916C97.1013 9.67333 97.526 9.552 98.0113 9.552C98.9353 9.552 99.6493 9.888 100.153 10.56C100.657 11.2227 100.909 12.156 100.909 13.36C100.909 14.564 100.657 15.502 100.153 16.174C99.6493 16.8367 98.9353 17.168 98.0113 17.168C97.526 17.168 97.1013 17.0467 96.7373 16.804C96.3826 16.5613 96.126 16.2253 95.9673 15.796H95.8973V19.8H94.3713V9.72ZM97.5493 15.852C98.0813 15.852 98.506 15.684 98.8233 15.348C99.1406 15.0027 99.2993 14.55 99.2993 13.99V12.73C99.2993 12.17 99.1406 11.722 98.8233 11.386C98.506 11.0407 98.0813 10.868 97.5493 10.868C97.0826 10.868 96.6906 10.9847 96.3733 11.218C96.056 11.442 95.8973 11.7407 95.8973 12.114V14.606C95.8973 14.9793 96.056 15.2827 96.3733 15.516C96.6906 15.74 97.0826 15.852 97.5493 15.852ZM104.21 17C103.688 17 103.296 16.8693 103.034 16.608C102.782 16.3373 102.656 15.964 102.656 15.488V6.64H104.182V15.754H105.19V17H104.21Z" fill="black"/>
<line x1="13" y1="12.1792" x2="17.7367" y2="12.1792" stroke="black"/>
<rect x="18.2178" y="8.16968" width="7.22529" height="7.90558" rx="1.22727" stroke="black"/>
<rect x="22.4189" y="7.66968" width="3.52513" height="8.90558" rx="1.72727" fill="#5DA1F6"/>
<rect x="22.418" y="6" width="4.30849" height="4.08173" rx="2.04086" fill="#5DA1F6" stroke="black"/>
<rect x="22.418" y="13.7921" width="4.30849" height="4.08173" rx="2.04086" fill="#5DA1F6" stroke="black"/>
</svg>
