<svg width="24" height="24" viewBox="0 0 24 24" fill="none" xmlns="http://www.w3.org/2000/svg">
<path d="M14.5421 12.1692C14.5421 13.6099 13.3631 14.7667 11.9224 14.7667C10.4817 14.7667 9.30273 13.6099 9.30273 12.1692C9.30273 10.7285 10.4817 9.57168 11.9224 9.57168C13.3631 9.57168 14.5421 10.7285 14.5421 12.1692Z" stroke="#5D5F65" stroke-width="2"/>
<path d="M10.2192 2.8046L9.93007 3.81028C9.58156 5.02259 8.09971 5.49737 7.08483 4.74088C5.62842 3.65527 3.60612 5.11143 4.26615 6.79768L4.61882 7.6987C4.99555 8.66118 4.4813 9.74058 3.49343 10.0609L2.74855 10.3024C1.03976 10.8565 1.10061 13.2796 2.83507 13.7482L3.37129 13.8931C4.40863 14.1734 4.97293 15.2853 4.5832 16.281L4.09884 17.5184C3.45285 19.1688 5.34261 20.6561 6.81089 19.6528L7.19278 19.3919C8.19489 18.7071 9.57774 19.1799 9.94395 20.3325L10.2332 21.2429C10.7623 22.9081 13.1281 22.9227 13.678 21.2642L13.9938 20.3118C14.3732 19.1672 15.7556 18.71 16.7495 19.4004L16.993 19.5695C18.4593 20.5881 20.3651 19.1001 19.7165 17.443L19.226 16.19C18.8493 15.2275 19.3635 14.1481 20.3514 13.8278L21.2515 13.536C22.9468 12.9863 22.9049 10.5883 21.1914 10.0975L20.8178 9.9905C19.8288 9.7072 19.2763 8.66233 19.6024 7.69211L20.0125 6.47214C20.5773 4.79203 18.616 3.39771 17.1986 4.47172L16.8385 4.74463C15.8318 5.50743 14.3684 5.0338 14.0068 3.82813L13.6938 2.78484C13.1768 1.06147 10.7163 1.07547 10.2192 2.8046Z" stroke="#5D5F65" stroke-width="2"/>
</svg>
